<?xml version="1.0" encoding="utf-8"?>
<!-- Generator: Adobe Illustrator 16.0.0, SVG Export Plug-In . SVG Version: 6.00 Build 0)  -->
<!DOCTYPE svg PUBLIC "-//W3C//DTD SVG 1.1//EN" "http://www.w3.org/Graphics/SVG/1.1/DTD/svg11.dtd">
<svg version="1.1" id="图层_1" xmlns="http://www.w3.org/2000/svg" xmlns:xlink="http://www.w3.org/1999/xlink" x="0px" y="0px"
	 width="50px" height="50px" viewBox="0 0 50 50" enable-background="new 0 0 50 50" xml:space="preserve">
<g>
	<g>
		<path fill="#272636" d="M44.758,19.208H44c-0.381-1.208-0.882-2.363-1.479-3.456l0.601-0.6c2.147-2.148,2.147-5.63,0-7.78
			l-0.163-0.162c-2.149-2.149-5.632-2.149-7.779,0l-0.669,0.67c-1.101-0.578-2.264-1.057-3.478-1.416V5.5c0-3.038-2.463-5.5-5.5-5.5
			h-0.231C22.263,0,19.8,2.462,19.8,5.5v1.034c-1.162,0.36-2.274,0.828-3.331,1.39l-0.713-0.712c-2.146-2.149-5.629-2.149-7.778,0
			L7.814,7.373c-2.146,2.149-2.146,5.631,0,7.78l0.689,0.689c-0.576,1.066-1.057,2.191-1.427,3.366h-1c-3.038,0-5.5,2.462-5.5,5.5
			v0.229c0,3.039,2.462,5.502,5.5,5.502h0.876c0.361,1.242,0.849,2.431,1.438,3.557l-0.666,0.664c-2.148,2.148-2.148,5.633,0,7.782
			l0.162,0.163c2.148,2.148,5.631,2.148,7.779,0l0.597-0.598c1.118,0.612,2.299,1.122,3.537,1.505v0.811
			c0,3.039,2.463,5.5,5.501,5.5h0.232c3.036,0,5.499-2.461,5.499-5.5v-0.742c1.291-0.381,2.521-0.9,3.685-1.527l0.552,0.552
			c2.144,2.147,5.631,2.147,7.776,0l0.164-0.164c2.148-2.149,2.148-5.633,0-7.781l-0.574-0.575c0.612-1.152,1.117-2.37,1.488-3.646
			h0.634c3.037,0,5.5-2.464,5.5-5.502v-0.231C50.257,21.67,47.795,19.208,44.758,19.208z M25.549,33.622
			c-4.756,0-8.61-3.854-8.61-8.608c0-4.756,3.854-8.61,8.61-8.61c4.754,0,8.608,3.854,8.608,8.61
			C34.157,29.769,30.303,33.622,25.549,33.622z"/>
	</g>
</g>
</svg>
