<?xml version="1.0" encoding="utf-8"?>
<!-- Generator: Adobe Illustrator 16.0.0, SVG Export Plug-In . SVG Version: 6.00 Build 0)  -->
<!DOCTYPE svg PUBLIC "-//W3C//DTD SVG 1.1//EN" "http://www.w3.org/Graphics/SVG/1.1/DTD/svg11.dtd">
<svg version="1.1" id="图层_1" xmlns="http://www.w3.org/2000/svg" xmlns:xlink="http://www.w3.org/1999/xlink" x="0px" y="0px"
	 width="50px" height="50px" viewBox="0 0 50 50" enable-background="new 0 0 50 50" xml:space="preserve">
<g>
	<g>
		<path fill="#272636" d="M20.86,31.042c0-2.285,1.854-4.138,4.139-4.138c2.286,0,4.14,1.853,4.14,4.138
			c0,2.016-1.038,3.696-2.941,4.067l2.941,8.35H20.86l2.749-8.35C21.704,34.738,20.86,33.058,20.86,31.042z M14.652,18.625v-4.139
			c0-5.715,4.633-10.348,10.347-10.348c5.717,0,10.349,4.632,10.349,10.348v4.139H14.652z M39.487,18.625v-3.77
			C39.487,6.665,33.403,0,24.999,0c-8.402,0-14.486,6.665-14.486,14.856v3.77c-3.43,0-6.208,2.779-6.208,6.208v18.625
			c0,3.428,2.779,6.208,6.208,6.208h28.975c3.43,0,6.208-2.78,6.208-6.208V24.833C45.695,21.405,42.917,18.625,39.487,18.625z"/>
	</g>
</g>
</svg>
