<?xml version="1.0" encoding="utf-8"?>
<!-- Generator: Adobe Illustrator 16.0.0, SVG Export Plug-In . SVG Version: 6.00 Build 0)  -->
<!DOCTYPE svg PUBLIC "-//W3C//DTD SVG 1.1//EN" "http://www.w3.org/Graphics/SVG/1.1/DTD/svg11.dtd">
<svg version="1.1" id="图层_1" xmlns="http://www.w3.org/2000/svg" xmlns:xlink="http://www.w3.org/1999/xlink" x="0px" y="0px"
	 width="50px" height="50px" viewBox="0 0 50 50" enable-background="new 0 0 50 50" xml:space="preserve">
<g>
	<g>
		<path fill="#272636" d="M41.07,16.071c1.786,0,8.93,7.143,8.93,8.929s-7.144,8.928-8.93,8.928c-1.784,0-1.784-1.786-1.784-1.786
			V17.856C39.286,17.856,39.286,16.071,41.07,16.071L41.07,16.071z M39.284,23.214v3.57h-12.5v12.502h-3.571V26.784H10.714v-3.57
			h12.499v-12.5h3.571v12.5H39.284L39.284,23.214z M33.928,8.929c0,1.785-1.786,1.785-1.786,1.785H17.856c0,0-1.785,0-1.785-1.785
			C16.071,7.143,23.214,0,25,0C26.784,0,33.928,7.143,33.928,8.929L33.928,8.929L33.928,8.929z M32.142,39.286
			c0,0,1.786,0,1.786,1.784c0,1.786-7.144,8.929-8.928,8.929c-1.786,0-8.929-7.143-8.929-8.929c0-1.784,1.786-1.784,1.786-1.784
			H32.142L32.142,39.286z M10.714,26.784v5.357c0,0,0,1.786-1.785,1.786C7.143,33.928,0,26.784,0,25
			c0-1.786,7.143-8.929,8.929-8.929s1.785,1.785,1.785,1.785V26.784L10.714,26.784z"/>
	</g>
</g>
</svg>
