<?xml version="1.0" encoding="utf-8"?>
<!-- Generator: Adobe Illustrator 16.0.0, SVG Export Plug-In . SVG Version: 6.00 Build 0)  -->
<!DOCTYPE svg PUBLIC "-//W3C//DTD SVG 1.1//EN" "http://www.w3.org/Graphics/SVG/1.1/DTD/svg11.dtd">
<svg version="1.1" id="图层_1" xmlns="http://www.w3.org/2000/svg" xmlns:xlink="http://www.w3.org/1999/xlink" x="0px" y="0px"
	 width="50px" height="50px" viewBox="0 0 50 50" enable-background="new 0 0 50 50" xml:space="preserve">
<g>
	<path fill="#272636" d="M3.352,2.276C3.352,1.018,4.347,0,5.631,0h11.346c1.259,0,2.278,0.997,2.278,2.276v45.426
		c0,1.259-0.995,2.276-2.278,2.276H5.631c-1.259,0-2.279-0.998-2.279-2.276V2.276z M30.614,2.276C30.614,1.018,31.608,0,32.894,0
		h11.346c1.259,0,2.278,0.997,2.278,2.276v45.426c0,1.259-0.996,2.276-2.278,2.276H32.894c-1.259,0-2.279-0.998-2.279-2.276V2.276z"
		/>
</g>
</svg>
