<?xml version="1.0" encoding="utf-8"?>
<!-- Generator: Adobe Illustrator 16.0.0, SVG Export Plug-In . SVG Version: 6.00 Build 0)  -->
<!DOCTYPE svg PUBLIC "-//W3C//DTD SVG 1.1//EN" "http://www.w3.org/Graphics/SVG/1.1/DTD/svg11.dtd">
<svg version="1.1" id="图层_1" xmlns="http://www.w3.org/2000/svg" xmlns:xlink="http://www.w3.org/1999/xlink" x="0px" y="0px"
	 width="50px" height="50px" viewBox="0 0 50 50" enable-background="new 0 0 50 50" xml:space="preserve">
<g>
	<path fill="#272636" d="M16.659,22.243l0.083,0.085l0.139,0.177l0.147,0.161l0.303,0.343l0.311,0.316l0.333,0.308l0.332,0.287
		l0.354,0.278l0.364,0.269l0.362,0.251l0.383,0.236l0.386,0.219l0.407,0.198l0.4,0.193l0.415,0.178l0.412,0.154l0.429,0.14
		l0.43,0.118l-0.097,0.117l-0.089,0.103l-0.083,0.112l-0.086,0.123l-0.067,0.121l-0.075,0.125l-0.067,0.124l-0.059,0.134
		l-0.043,0.123l-0.044,0.143l-0.046,0.131l-0.027,0.15l-0.024,0.134l-0.029,0.145l-0.008,0.147l-0.008,0.147l0.008,0.169
		l0.014,0.163l0.031,0.16l0.03,0.155l0.034,0.156l0.049,0.161l0.059,0.149l0.059,0.145l0.081,0.143l0.072,0.139l0.082,0.135
		l0.097,0.13l0.098,0.126l0.102,0.127l0.117,0.117l0.113,0.103l-1.739,13.033l4.236,4.099l4.109-4.099L27.71,30.511l0.124-0.11
		l0.104-0.12l0.109-0.125l0.097-0.117l0.088-0.139l0.092-0.126l0.08-0.147l0.066-0.14l0.06-0.146l0.063-0.148l0.047-0.154
		l0.037-0.156l0.029-0.155l0.022-0.168l0.015-0.155v-0.169v-0.147l-0.007-0.131l-0.014-0.134L28.7,27.687l-0.031-0.134l-0.028-0.123
		l-0.035-0.124l-0.054-0.126l-0.054-0.118l-0.048-0.125l-0.059-0.112l-0.059-0.118l-0.084-0.107l-0.066-0.117l-0.082-0.107
		l-0.073-0.103l0.414-0.102l0.421-0.117l0.412-0.135l0.416-0.147l0.398-0.169l0.399-0.171l0.383-0.198l0.387-0.215l0.37-0.219
		l0.361-0.244l0.361-0.249l0.34-0.268l0.341-0.278l0.315-0.295l0.311-0.3l0.313-0.319l0.08-0.083l0.087,0.075l0.579,0.445
		l0.555,0.455l0.548,0.472l0.278,0.235l0.259,0.241l0.26,0.252l0.258,0.251l0.26,0.252l0.249,0.249l0.246,0.249l0.244,0.269
		l0.243,0.263l0.236,0.268l0.231,0.273l0.228,0.273l0.222,0.278l0.219,0.286l0.215,0.282l0.217,0.286l0.215,0.292l0.2,0.298
		l0.2,0.295l0.197,0.302l0.193,0.311l0.183,0.301l0.187,0.327l0.177,0.315l0.178,0.316l0.171,0.324l0.171,0.324l0.153,0.341
		l0.164,0.337l0.147,0.341l0.154,0.338l0.143,0.361l0.139,0.348l0.134,0.351l0.132,0.37l0.117,0.361l0.127,0.368l0.112,0.377
		l0.117,0.375l0.102,0.395l0.098,0.381l0.104,0.397l0.088,0.39l0.091,0.401l0.078,0.402l0.082,0.411l0.064,0.417l0.075,0.42
		l0.061,0.418l0.053,0.437l0.048,0.426l0.049,0.445l0.034,0.442l0.046,0.442l0.026,0.454l0.023,0.456l0.022,0.458l0.008,0.474v0.075
		l-0.06,0.032l-0.541,0.312l-0.546,0.305l-0.546,0.283l-0.556,0.282l-0.56,0.274l-0.563,0.265l-0.567,0.251l-0.569,0.242
		l-0.573,0.235l-0.573,0.23l-0.578,0.203l-0.584,0.209l-0.589,0.199l-0.593,0.177l-0.592,0.184l-0.59,0.163l-0.601,0.156
		l-0.604,0.145l-0.601,0.141l-0.598,0.128l-0.605,0.117l-0.613,0.11l-0.616,0.094l-0.605,0.08l-0.611,0.083l-0.621,0.066
		l-0.613,0.052l-0.621,0.046l-0.62,0.034l-0.62,0.037l-0.623,0.015h-0.619h-0.667l-0.664-0.022l-0.667-0.037l-0.656-0.035
		l-0.659-0.051l-0.656-0.06l-0.657-0.074l-0.65-0.097l-0.659-0.096l-0.651-0.11l-0.643-0.125l-0.647-0.132l-0.644-0.14l-0.643-0.163
		l-0.638-0.162l-0.627-0.175l-0.635-0.193l-0.629-0.194l-0.622-0.214l-0.622-0.22l-0.61-0.235l-0.616-0.244l-0.606-0.257
		l-0.61-0.266l-0.6-0.278l-0.59-0.289L8.41,45.219L7.82,44.908l-0.584-0.316l-0.575-0.327l-0.571-0.343l-0.567-0.354l0,0
		l-0.067-0.112l0.025-0.472l0.026-0.472l0.032-0.471l0.042-0.45l0.038-0.456l0.051-0.458l0.059-0.437l0.059-0.44l0.067-0.432
		l0.067-0.431l0.08-0.429l0.083-0.413l0.081-0.416l0.102-0.411l0.091-0.403l0.102-0.397l0.113-0.399l0.109-0.383L6.8,35.295
		l0.118-0.375l0.134-0.386l0.126-0.365l0.14-0.363l0.139-0.369l0.149-0.354l0.148-0.342l0.153-0.354l0.158-0.349L8.233,31.7
		l0.171-0.332l0.172-0.333l0.174-0.326l0.186-0.321l0.187-0.317l0.19-0.311l0.19-0.315l0.203-0.311l0.199-0.295l0.214-0.3
		l0.214-0.29l0.214-0.294l0.214-0.284l0.228-0.284l0.228-0.273l0.23-0.273l0.238-0.273l0.244-0.265l0.241-0.266l0.239-0.257
		l0.259-0.258l0.252-0.251l0.257-0.253l0.267-0.241l0.263-0.243l0.268-0.239l0.273-0.236l0.281-0.226l0.274-0.23l0.287-0.219
		l0.297-0.22l0.287-0.225l0.289-0.219l0.6-0.413L16.659,22.243L16.659,22.243L16.659,22.243L16.659,22.243z M24.994,0h0.295H25.6
		l0.294,0.016l0.295,0.016l0.291,0.029l0.293,0.027l0.29,0.045l0.278,0.054l0.289,0.048l0.281,0.062l0.276,0.067l0.278,0.081
		l0.273,0.075l0.268,0.086l0.273,0.096l0.258,0.102l0.265,0.113l0.26,0.113l0.257,0.11l0.253,0.131l0.243,0.125l0.254,0.139
		l0.235,0.143l0.234,0.155l0.238,0.155l0.221,0.153l0.229,0.163l0.223,0.171l0.223,0.177l0.214,0.178l0.199,0.182l0.209,0.193
		l0.197,0.193l0.198,0.207l0.187,0.19l0.184,0.214l0.186,0.214l0.168,0.214l0.173,0.214l0.17,0.23l0.152,0.228l0.157,0.233
		l0.142,0.241l0.146,0.241l0.133,0.241l0.143,0.251l0.116,0.252l0.127,0.247l0.112,0.257l0.108,0.263l0.096,0.268l0.092,0.268
		l0.096,0.27l0.08,0.273l0.072,0.273l0.067,0.282l0.066,0.278l0.05,0.29l0.046,0.287l0.036,0.287l0.038,0.289l0.022,0.29
		l0.021,0.295l0.014,0.295l0.009,0.302l-0.009,0.346l-0.021,0.362l-0.03,0.348l-0.029,0.34l-0.042,0.346l-0.061,0.341l-0.068,0.338
		l-0.08,0.327l-0.081,0.337l-0.097,0.327l-0.101,0.316l-0.114,0.317l-0.123,0.311l-0.134,0.311l-0.142,0.311l-0.14,0.295
		l-0.164,0.294l-0.162,0.29l-0.169,0.278l-0.186,0.281l-0.186,0.271l-0.197,0.268l-0.201,0.265l-0.214,0.253L33.942,19.3
		l-0.23,0.247l-0.228,0.236l-0.244,0.219l-0.244,0.23l-0.252,0.214l-0.249,0.215l-0.269,0.198l-0.36,0.265l-0.384,0.251
		l-0.392,0.229l-0.394,0.222l-0.415,0.207l-0.418,0.19l-0.203,0.089l-0.22,0.08l-0.214,0.092l-0.221,0.074l-0.224,0.064
		l-0.215,0.067l-0.221,0.072l-0.229,0.054l-0.226,0.059l-0.23,0.043l-0.23,0.045l-0.23,0.051l-0.228,0.029l-0.238,0.038
		l-0.236,0.024l-0.241,0.021l-0.237,0.013l-0.244,0.017l-0.243,0.008h-0.244h-0.273l-0.281-0.016l-0.282-0.017l-0.273-0.021
		l-0.273-0.03l-0.265-0.029l-0.273-0.043l-0.266-0.053l-0.267-0.054l-0.266-0.056l-0.26-0.066l-0.257-0.075l-0.252-0.081
		l-0.258-0.08l-0.246-0.081l-0.241-0.104l-0.252-0.094l-0.244-0.112l-0.238-0.112l-0.236-0.107l-0.236-0.128l-0.229-0.118
		l-0.221-0.14l-0.23-0.134l-0.219-0.139l-0.215-0.148l-0.222-0.148l-0.207-0.161l-0.201-0.155l-0.207-0.171l-0.198-0.161L17.5,20.15
		l-0.214-0.195l-0.206-0.208l-0.209-0.21l-0.207-0.219l-0.185-0.22l-0.192-0.23l-0.183-0.236l-0.176-0.236l-0.172-0.236
		l-0.171-0.251l-0.156-0.252l-0.155-0.251l-0.146-0.258l-0.141-0.265l-0.134-0.265l-0.126-0.273l-0.118-0.273l-0.118-0.281
		l-0.102-0.281l-0.096-0.279l-0.096-0.29l-0.081-0.294l-0.075-0.294l-0.08-0.303l-0.059-0.294l-0.054-0.303l-0.043-0.303
		l-0.038-0.307l-0.038-0.312l-0.021-0.318l-0.008-0.319l-0.008-0.309l0.008-0.302l0.008-0.295l0.021-0.295l0.032-0.29l0.027-0.294
		l0.046-0.29l0.045-0.279l0.05-0.294l0.057-0.285l0.074-0.271l0.075-0.281l0.08-0.274l0.097-0.262l0.089-0.273l0.099-0.263
		l0.107-0.263l0.112-0.257l0.126-0.247l0.118-0.257l0.143-0.247l0.13-0.241l0.147-0.241l0.14-0.241l0.155-0.233l0.155-0.228
		l0.172-0.23l0.169-0.214l0.169-0.22l0.187-0.214l0.183-0.208L16.9,3.588l0.201-0.19l0.198-0.198L17.5,3.006l0.207-0.176
		l0.214-0.188l0.222-0.177l0.223-0.161l0.23-0.163l0.219-0.153l0.237-0.166l0.235-0.145l0.247-0.143l0.241-0.139l0.247-0.125
		l0.258-0.131l0.251-0.11l0.258-0.113l0.268-0.112l0.256-0.102l0.274-0.096l0.268-0.086l0.273-0.075l0.278-0.081l0.273-0.067
		l0.281-0.061l0.29-0.057l0.28-0.045l0.288-0.046l0.297-0.026L24.4,0.033l0.296-0.016L24.994,0L24.994,0L24.994,0L24.994,0z
		 M24.994,0"/>
</g>
</svg>
